<mxfile host="app.diagrams.net" modified="2023-05-28T16:36:05.909Z" agent="Mozilla/5.0 (Windows NT 10.0; Win64; x64; rv:109.0) Gecko/20100101 Firefox/114.0" etag="XzYfaDZ-AJPuMxBPEmS8" version="21.3.4" type="onedrive">
  <diagram name="Page-1" id="c4acf3e9-155e-7222-9cf6-157b1a14988f">
    <mxGraphModel grid="1" page="1" gridSize="10" guides="1" tooltips="1" connect="1" arrows="1" fold="1" pageScale="1" pageWidth="850" pageHeight="1100" background="none" math="0" shadow="0">
      <root>
        <mxCell id="0" />
        <mxCell id="1" parent="0" />
        <mxCell id="tub3MnyLHjBKPgWRkiG1-1" value="admin-view.fxml" style="html=1;whiteSpace=wrap;" vertex="1" parent="1">
          <mxGeometry x="-385" y="30" width="110" height="50" as="geometry" />
        </mxCell>
        <mxCell id="5Ch6xkHOQ6j9b463cIm1-12" value="adminController" style="swimlane;fontStyle=1;align=center;verticalAlign=top;childLayout=stackLayout;horizontal=1;startSize=26;horizontalStack=0;resizeParent=1;resizeParentMax=0;resizeLast=0;collapsible=1;marginBottom=0;whiteSpace=wrap;html=1;" vertex="1" parent="1">
          <mxGeometry x="-460" y="152" width="260" height="190" as="geometry" />
        </mxCell>
        <mxCell id="17acba5748e5396b-3" value="- adminViewPane: BorderPane" style="text;html=1;strokeColor=none;fillColor=none;align=left;verticalAlign=top;spacingLeft=4;spacingRight=4;whiteSpace=wrap;overflow=hidden;rotatable=0;points=[[0,0.5],[1,0.5]];portConstraint=eastwest;" vertex="1" parent="5Ch6xkHOQ6j9b463cIm1-12">
          <mxGeometry y="26" width="260" height="26" as="geometry" />
        </mxCell>
        <mxCell id="17acba5748e5396b-4" value="- adminTabPane: TabPane" style="text;html=1;strokeColor=none;fillColor=none;align=left;verticalAlign=top;spacingLeft=4;spacingRight=4;whiteSpace=wrap;overflow=hidden;rotatable=0;points=[[0,0.5],[1,0.5]];portConstraint=eastwest;" vertex="1" parent="5Ch6xkHOQ6j9b463cIm1-12">
          <mxGeometry y="52" width="260" height="26" as="geometry" />
        </mxCell>
        <mxCell id="17acba5748e5396b-6" value="- userProfileController: UserProfileController" style="text;html=1;strokeColor=none;fillColor=none;align=left;verticalAlign=top;spacingLeft=4;spacingRight=4;whiteSpace=wrap;overflow=hidden;rotatable=0;points=[[0,0.5],[1,0.5]];portConstraint=eastwest;" vertex="1" parent="5Ch6xkHOQ6j9b463cIm1-12">
          <mxGeometry y="78" width="260" height="26" as="geometry" />
        </mxCell>
        <mxCell id="5Ch6xkHOQ6j9b463cIm1-14" value="" style="line;strokeWidth=1;fillColor=none;align=left;verticalAlign=middle;spacingTop=-1;spacingLeft=3;spacingRight=3;rotatable=0;labelPosition=right;points=[];portConstraint=eastwest;strokeColor=inherit;" vertex="1" parent="5Ch6xkHOQ6j9b463cIm1-12">
          <mxGeometry y="104" width="260" height="8" as="geometry" />
        </mxCell>
        <mxCell id="5Ch6xkHOQ6j9b463cIm1-15" value="+ initialize(): void" style="text;strokeColor=none;fillColor=none;align=left;verticalAlign=top;spacingLeft=4;spacingRight=4;overflow=hidden;rotatable=0;points=[[0,0.5],[1,0.5]];portConstraint=eastwest;whiteSpace=wrap;html=1;" vertex="1" parent="5Ch6xkHOQ6j9b463cIm1-12">
          <mxGeometry y="112" width="260" height="26" as="geometry" />
        </mxCell>
        <mxCell id="5Ch6xkHOQ6j9b463cIm1-16" value="+ setUser(User user): void" style="text;strokeColor=none;fillColor=none;align=left;verticalAlign=top;spacingLeft=4;spacingRight=4;overflow=hidden;rotatable=0;points=[[0,0.5],[1,0.5]];portConstraint=eastwest;whiteSpace=wrap;html=1;" vertex="1" parent="5Ch6xkHOQ6j9b463cIm1-12">
          <mxGeometry y="138" width="260" height="26" as="geometry" />
        </mxCell>
        <mxCell id="wu1okzSe4eaxDXMI3S0Y-29" value="- onLogoutAdminView(): void" style="text;strokeColor=none;fillColor=none;align=left;verticalAlign=top;spacingLeft=4;spacingRight=4;overflow=hidden;rotatable=0;points=[[0,0.5],[1,0.5]];portConstraint=eastwest;whiteSpace=wrap;html=1;" vertex="1" parent="5Ch6xkHOQ6j9b463cIm1-12">
          <mxGeometry y="164" width="260" height="26" as="geometry" />
        </mxCell>
        <mxCell id="_LWNujKteYWKgkZ7uh31-4" value="&lt;div&gt;controls&lt;/div&gt;&lt;div&gt;&lt;br&gt;&lt;/div&gt;" style="endArrow=block;endSize=16;endFill=0;html=1;rounded=0;exitX=0.5;exitY=0;exitDx=0;exitDy=0;entryX=0.5;entryY=1;entryDx=0;entryDy=0;" edge="1" parent="1" source="5Ch6xkHOQ6j9b463cIm1-12" target="tub3MnyLHjBKPgWRkiG1-1">
          <mxGeometry x="-0.1111" width="160" relative="1" as="geometry">
            <mxPoint x="-390" y="320" as="sourcePoint" />
            <mxPoint x="-230" y="320" as="targetPoint" />
            <mxPoint as="offset" />
          </mxGeometry>
        </mxCell>
        <mxCell id="17acba5748e5396b-1" value="frame" style="shape=umlFrame;whiteSpace=wrap;html=1;rounded=0;shadow=0;comic=0;labelBackgroundColor=none;strokeWidth=1;fontFamily=Verdana;fontSize=10;align=center;movable=1;resizable=1;rotatable=1;deletable=1;editable=1;locked=0;connectable=1;" vertex="1" parent="1">
          <mxGeometry x="-820" y="10" width="820" height="1060" as="geometry" />
        </mxCell>
        <mxCell id="_LWNujKteYWKgkZ7uh31-6" value="customerEditor-view.fxml" style="html=1;whiteSpace=wrap;" vertex="1" parent="1">
          <mxGeometry x="-780" y="60" width="145" height="50" as="geometry" />
        </mxCell>
        <mxCell id="_LWNujKteYWKgkZ7uh31-7" value="customerEditorController" style="swimlane;fontStyle=1;align=center;verticalAlign=top;childLayout=stackLayout;horizontal=1;startSize=26;horizontalStack=0;resizeParent=1;resizeParentMax=0;resizeLast=0;collapsible=1;marginBottom=0;whiteSpace=wrap;html=1;" vertex="1" parent="1">
          <mxGeometry x="-800" y="162" width="260" height="164" as="geometry" />
        </mxCell>
        <mxCell id="_LWNujKteYWKgkZ7uh31-8" value="- customerEditorPane: DialogPane" style="text;html=1;strokeColor=none;fillColor=none;align=left;verticalAlign=top;spacingLeft=4;spacingRight=4;whiteSpace=wrap;overflow=hidden;rotatable=0;points=[[0,0.5],[1,0.5]];portConstraint=eastwest;" vertex="1" parent="_LWNujKteYWKgkZ7uh31-7">
          <mxGeometry y="26" width="260" height="26" as="geometry" />
        </mxCell>
        <mxCell id="_LWNujKteYWKgkZ7uh31-9" value="- customerEditorOutputLabel: Label" style="text;html=1;strokeColor=none;fillColor=none;align=left;verticalAlign=top;spacingLeft=4;spacingRight=4;whiteSpace=wrap;overflow=hidden;rotatable=0;points=[[0,0.5],[1,0.5]];portConstraint=eastwest;" vertex="1" parent="_LWNujKteYWKgkZ7uh31-7">
          <mxGeometry y="52" width="260" height="26" as="geometry" />
        </mxCell>
        <mxCell id="_LWNujKteYWKgkZ7uh31-10" value="- userProfileController: UserProfileController" style="text;html=1;strokeColor=none;fillColor=none;align=left;verticalAlign=top;spacingLeft=4;spacingRight=4;whiteSpace=wrap;overflow=hidden;rotatable=0;points=[[0,0.5],[1,0.5]];portConstraint=eastwest;" vertex="1" parent="_LWNujKteYWKgkZ7uh31-7">
          <mxGeometry y="78" width="260" height="26" as="geometry" />
        </mxCell>
        <mxCell id="_LWNujKteYWKgkZ7uh31-11" value="" style="line;strokeWidth=1;fillColor=none;align=left;verticalAlign=middle;spacingTop=-1;spacingLeft=3;spacingRight=3;rotatable=0;labelPosition=right;points=[];portConstraint=eastwest;strokeColor=inherit;" vertex="1" parent="_LWNujKteYWKgkZ7uh31-7">
          <mxGeometry y="104" width="260" height="8" as="geometry" />
        </mxCell>
        <mxCell id="_LWNujKteYWKgkZ7uh31-12" value="+ initialize(): void" style="text;strokeColor=none;fillColor=none;align=left;verticalAlign=top;spacingLeft=4;spacingRight=4;overflow=hidden;rotatable=0;points=[[0,0.5],[1,0.5]];portConstraint=eastwest;whiteSpace=wrap;html=1;" vertex="1" parent="_LWNujKteYWKgkZ7uh31-7">
          <mxGeometry y="112" width="260" height="26" as="geometry" />
        </mxCell>
        <mxCell id="_LWNujKteYWKgkZ7uh31-13" value="+ setCustomer(Customer customer): void" style="text;strokeColor=none;fillColor=none;align=left;verticalAlign=top;spacingLeft=4;spacingRight=4;overflow=hidden;rotatable=0;points=[[0,0.5],[1,0.5]];portConstraint=eastwest;whiteSpace=wrap;html=1;" vertex="1" parent="_LWNujKteYWKgkZ7uh31-7">
          <mxGeometry y="138" width="260" height="26" as="geometry" />
        </mxCell>
        <mxCell id="_LWNujKteYWKgkZ7uh31-15" value="&lt;div&gt;controls&lt;/div&gt;&lt;div&gt;&lt;br&gt;&lt;/div&gt;" style="endArrow=block;endSize=16;endFill=0;html=1;rounded=0;exitX=0.5;exitY=0;exitDx=0;exitDy=0;entryX=0.5;entryY=1;entryDx=0;entryDy=0;" edge="1" parent="1" source="_LWNujKteYWKgkZ7uh31-7" target="_LWNujKteYWKgkZ7uh31-6">
          <mxGeometry x="-0.1111" width="160" relative="1" as="geometry">
            <mxPoint x="-745" y="330" as="sourcePoint" />
            <mxPoint x="-585" y="330" as="targetPoint" />
            <mxPoint as="offset" />
          </mxGeometry>
        </mxCell>
        <mxCell id="_LWNujKteYWKgkZ7uh31-16" value="manageItem-view.fxml" style="html=1;whiteSpace=wrap;" vertex="1" parent="1">
          <mxGeometry x="-555" y="440" width="135" height="50" as="geometry" />
        </mxCell>
        <mxCell id="_LWNujKteYWKgkZ7uh31-17" value="manageItemController" style="swimlane;fontStyle=1;align=center;verticalAlign=top;childLayout=stackLayout;horizontal=1;startSize=26;horizontalStack=0;resizeParent=1;resizeParentMax=0;resizeLast=0;collapsible=1;marginBottom=0;whiteSpace=wrap;html=1;" vertex="1" parent="1">
          <mxGeometry x="-780" y="522" width="300" height="424" as="geometry" />
        </mxCell>
        <mxCell id="_LWNujKteYWKgkZ7uh31-18" value="- manageItemPane: BorderPane" style="text;html=1;strokeColor=none;fillColor=none;align=left;verticalAlign=top;spacingLeft=4;spacingRight=4;whiteSpace=wrap;overflow=hidden;rotatable=0;points=[[0,0.5],[1,0.5]];portConstraint=eastwest;" vertex="1" parent="_LWNujKteYWKgkZ7uh31-17">
          <mxGeometry y="26" width="300" height="26" as="geometry" />
        </mxCell>
        <mxCell id="_LWNujKteYWKgkZ7uh31-19" value="- itemTableAdmin: TableView&amp;lt;Item&amp;gt;" style="text;html=1;strokeColor=none;fillColor=none;align=left;verticalAlign=top;spacingLeft=4;spacingRight=4;whiteSpace=wrap;overflow=hidden;rotatable=0;points=[[0,0.5],[1,0.5]];portConstraint=eastwest;" vertex="1" parent="_LWNujKteYWKgkZ7uh31-17">
          <mxGeometry y="52" width="300" height="26" as="geometry" />
        </mxCell>
        <mxCell id="_LWNujKteYWKgkZ7uh31-20" value="- items: ObservableList&amp;lt;Item&amp;gt;" style="text;html=1;strokeColor=none;fillColor=none;align=left;verticalAlign=top;spacingLeft=4;spacingRight=4;whiteSpace=wrap;overflow=hidden;rotatable=0;points=[[0,0.5],[1,0.5]];portConstraint=eastwest;" vertex="1" parent="_LWNujKteYWKgkZ7uh31-17">
          <mxGeometry y="78" width="300" height="26" as="geometry" />
        </mxCell>
        <mxCell id="_LWNujKteYWKgkZ7uh31-26" value="- manageItemOutput: Label" style="text;html=1;strokeColor=none;fillColor=none;align=left;verticalAlign=top;spacingLeft=4;spacingRight=4;whiteSpace=wrap;overflow=hidden;rotatable=0;points=[[0,0.5],[1,0.5]];portConstraint=eastwest;" vertex="1" parent="_LWNujKteYWKgkZ7uh31-17">
          <mxGeometry y="104" width="300" height="26" as="geometry" />
        </mxCell>
        <mxCell id="_LWNujKteYWKgkZ7uh31-28" value="- itemAddButton: Button" style="text;html=1;strokeColor=none;fillColor=none;align=left;verticalAlign=top;spacingLeft=4;spacingRight=4;whiteSpace=wrap;overflow=hidden;rotatable=0;points=[[0,0.5],[1,0.5]];portConstraint=eastwest;" vertex="1" parent="_LWNujKteYWKgkZ7uh31-17">
          <mxGeometry y="130" width="300" height="26" as="geometry" />
        </mxCell>
        <mxCell id="_LWNujKteYWKgkZ7uh31-29" value="- itemUpdateButton: Button" style="text;html=1;strokeColor=none;fillColor=none;align=left;verticalAlign=top;spacingLeft=4;spacingRight=4;whiteSpace=wrap;overflow=hidden;rotatable=0;points=[[0,0.5],[1,0.5]];portConstraint=eastwest;" vertex="1" parent="_LWNujKteYWKgkZ7uh31-17">
          <mxGeometry y="156" width="300" height="26" as="geometry" />
        </mxCell>
        <mxCell id="_LWNujKteYWKgkZ7uh31-30" value="- itemDeleteButton: Button" style="text;html=1;strokeColor=none;fillColor=none;align=left;verticalAlign=top;spacingLeft=4;spacingRight=4;whiteSpace=wrap;overflow=hidden;rotatable=0;points=[[0,0.5],[1,0.5]];portConstraint=eastwest;" vertex="1" parent="_LWNujKteYWKgkZ7uh31-17">
          <mxGeometry y="182" width="300" height="26" as="geometry" />
        </mxCell>
        <mxCell id="_LWNujKteYWKgkZ7uh31-27" value="- itemSearchAdmin: TextField" style="text;html=1;strokeColor=none;fillColor=none;align=left;verticalAlign=top;spacingLeft=4;spacingRight=4;whiteSpace=wrap;overflow=hidden;rotatable=0;points=[[0,0.5],[1,0.5]];portConstraint=eastwest;" vertex="1" parent="_LWNujKteYWKgkZ7uh31-17">
          <mxGeometry y="208" width="300" height="26" as="geometry" />
        </mxCell>
        <mxCell id="_LWNujKteYWKgkZ7uh31-31" value="- itemDisplayComboBox: ComboBox&amp;lt;String&amp;gt;" style="text;html=1;strokeColor=none;fillColor=none;align=left;verticalAlign=top;spacingLeft=4;spacingRight=4;whiteSpace=wrap;overflow=hidden;rotatable=0;points=[[0,0.5],[1,0.5]];portConstraint=eastwest;" vertex="1" parent="_LWNujKteYWKgkZ7uh31-17">
          <mxGeometry y="234" width="300" height="26" as="geometry" />
        </mxCell>
        <mxCell id="_LWNujKteYWKgkZ7uh31-21" value="" style="line;strokeWidth=1;fillColor=none;align=left;verticalAlign=middle;spacingTop=-1;spacingLeft=3;spacingRight=3;rotatable=0;labelPosition=right;points=[];portConstraint=eastwest;strokeColor=inherit;" vertex="1" parent="_LWNujKteYWKgkZ7uh31-17">
          <mxGeometry y="260" width="300" height="8" as="geometry" />
        </mxCell>
        <mxCell id="_LWNujKteYWKgkZ7uh31-22" value="+ initialize(): void" style="text;strokeColor=none;fillColor=none;align=left;verticalAlign=top;spacingLeft=4;spacingRight=4;overflow=hidden;rotatable=0;points=[[0,0.5],[1,0.5]];portConstraint=eastwest;whiteSpace=wrap;html=1;" vertex="1" parent="_LWNujKteYWKgkZ7uh31-17">
          <mxGeometry y="268" width="300" height="26" as="geometry" />
        </mxCell>
        <mxCell id="_LWNujKteYWKgkZ7uh31-23" value="- refreshItemTable(): void" style="text;strokeColor=none;fillColor=none;align=left;verticalAlign=top;spacingLeft=4;spacingRight=4;overflow=hidden;rotatable=0;points=[[0,0.5],[1,0.5]];portConstraint=eastwest;whiteSpace=wrap;html=1;" vertex="1" parent="_LWNujKteYWKgkZ7uh31-17">
          <mxGeometry y="294" width="300" height="26" as="geometry" />
        </mxCell>
        <mxCell id="_LWNujKteYWKgkZ7uh31-24" value="- onItemAddButton(ActionEvent event): void" style="text;strokeColor=none;fillColor=none;align=left;verticalAlign=top;spacingLeft=4;spacingRight=4;overflow=hidden;rotatable=0;points=[[0,0.5],[1,0.5]];portConstraint=eastwest;whiteSpace=wrap;html=1;" vertex="1" parent="_LWNujKteYWKgkZ7uh31-17">
          <mxGeometry y="320" width="300" height="26" as="geometry" />
        </mxCell>
        <mxCell id="_LWNujKteYWKgkZ7uh31-32" value="- onItemDeleteButton(ActionEvent event): void" style="text;strokeColor=none;fillColor=none;align=left;verticalAlign=top;spacingLeft=4;spacingRight=4;overflow=hidden;rotatable=0;points=[[0,0.5],[1,0.5]];portConstraint=eastwest;whiteSpace=wrap;html=1;" vertex="1" parent="_LWNujKteYWKgkZ7uh31-17">
          <mxGeometry y="346" width="300" height="26" as="geometry" />
        </mxCell>
        <mxCell id="_LWNujKteYWKgkZ7uh31-33" value="- onItemUpdateButton(ActionEvent event): void" style="text;strokeColor=none;fillColor=none;align=left;verticalAlign=top;spacingLeft=4;spacingRight=4;overflow=hidden;rotatable=0;points=[[0,0.5],[1,0.5]];portConstraint=eastwest;whiteSpace=wrap;html=1;" vertex="1" parent="_LWNujKteYWKgkZ7uh31-17">
          <mxGeometry y="372" width="300" height="26" as="geometry" />
        </mxCell>
        <mxCell id="_LWNujKteYWKgkZ7uh31-34" value="- onItemDisplayComboBox(ActionEvent event): void" style="text;strokeColor=none;fillColor=none;align=left;verticalAlign=top;spacingLeft=4;spacingRight=4;overflow=hidden;rotatable=0;points=[[0,0.5],[1,0.5]];portConstraint=eastwest;whiteSpace=wrap;html=1;" vertex="1" parent="_LWNujKteYWKgkZ7uh31-17">
          <mxGeometry y="398" width="300" height="26" as="geometry" />
        </mxCell>
        <mxCell id="_LWNujKteYWKgkZ7uh31-25" value="&lt;div&gt;controls&lt;/div&gt;&lt;div&gt;&lt;br&gt;&lt;/div&gt;" style="endArrow=block;endSize=16;endFill=0;html=1;rounded=0;exitX=0.5;exitY=0;exitDx=0;exitDy=0;entryX=0.5;entryY=1;entryDx=0;entryDy=0;" edge="1" parent="1" source="_LWNujKteYWKgkZ7uh31-17" target="_LWNujKteYWKgkZ7uh31-16">
          <mxGeometry x="-0.1111" width="160" relative="1" as="geometry">
            <mxPoint x="-710" y="690" as="sourcePoint" />
            <mxPoint x="-550" y="690" as="targetPoint" />
            <mxPoint as="offset" />
          </mxGeometry>
        </mxCell>
        <mxCell id="_LWNujKteYWKgkZ7uh31-36" value="manageCustomer-view.fxml" style="html=1;whiteSpace=wrap;" vertex="1" parent="1">
          <mxGeometry x="-180" y="90" width="167.5" height="50" as="geometry" />
        </mxCell>
        <mxCell id="_LWNujKteYWKgkZ7uh31-37" value="manageCustomerController" style="swimlane;fontStyle=1;align=center;verticalAlign=top;childLayout=stackLayout;horizontal=1;startSize=26;horizontalStack=0;resizeParent=1;resizeParentMax=0;resizeLast=0;collapsible=1;marginBottom=0;whiteSpace=wrap;html=1;" vertex="1" parent="1">
          <mxGeometry x="-405" y="390" width="360" height="658" as="geometry" />
        </mxCell>
        <mxCell id="_LWNujKteYWKgkZ7uh31-38" value="- manageCustomerPane: BorderPane" style="text;html=1;strokeColor=none;fillColor=none;align=left;verticalAlign=top;spacingLeft=4;spacingRight=4;whiteSpace=wrap;overflow=hidden;rotatable=0;points=[[0,0.5],[1,0.5]];portConstraint=eastwest;" vertex="1" parent="_LWNujKteYWKgkZ7uh31-37">
          <mxGeometry y="26" width="360" height="26" as="geometry" />
        </mxCell>
        <mxCell id="_LWNujKteYWKgkZ7uh31-39" value="- customerTable: TableView&amp;lt;Customer&amp;gt;" style="text;html=1;strokeColor=none;fillColor=none;align=left;verticalAlign=top;spacingLeft=4;spacingRight=4;whiteSpace=wrap;overflow=hidden;rotatable=0;points=[[0,0.5],[1,0.5]];portConstraint=eastwest;" vertex="1" parent="_LWNujKteYWKgkZ7uh31-37">
          <mxGeometry y="52" width="360" height="26" as="geometry" />
        </mxCell>
        <mxCell id="_LWNujKteYWKgkZ7uh31-40" value="- customers: ObservableList&amp;lt;Customer&amp;gt;" style="text;html=1;strokeColor=none;fillColor=none;align=left;verticalAlign=top;spacingLeft=4;spacingRight=4;whiteSpace=wrap;overflow=hidden;rotatable=0;points=[[0,0.5],[1,0.5]];portConstraint=eastwest;" vertex="1" parent="_LWNujKteYWKgkZ7uh31-37">
          <mxGeometry y="78" width="360" height="26" as="geometry" />
        </mxCell>
        <mxCell id="_LWNujKteYWKgkZ7uh31-41" value="- manageCustomerOutput: Label" style="text;html=1;strokeColor=none;fillColor=none;align=left;verticalAlign=top;spacingLeft=4;spacingRight=4;whiteSpace=wrap;overflow=hidden;rotatable=0;points=[[0,0.5],[1,0.5]];portConstraint=eastwest;" vertex="1" parent="_LWNujKteYWKgkZ7uh31-37">
          <mxGeometry y="104" width="360" height="26" as="geometry" />
        </mxCell>
        <mxCell id="_LWNujKteYWKgkZ7uh31-44" value="- customerAddButton: Button" style="text;html=1;strokeColor=none;fillColor=none;align=left;verticalAlign=top;spacingLeft=4;spacingRight=4;whiteSpace=wrap;overflow=hidden;rotatable=0;points=[[0,0.5],[1,0.5]];portConstraint=eastwest;" vertex="1" parent="_LWNujKteYWKgkZ7uh31-37">
          <mxGeometry y="130" width="360" height="26" as="geometry" />
        </mxCell>
        <mxCell id="_LWNujKteYWKgkZ7uh31-43" value="- customerUpdateButton: Button" style="text;html=1;strokeColor=none;fillColor=none;align=left;verticalAlign=top;spacingLeft=4;spacingRight=4;whiteSpace=wrap;overflow=hidden;rotatable=0;points=[[0,0.5],[1,0.5]];portConstraint=eastwest;" vertex="1" parent="_LWNujKteYWKgkZ7uh31-37">
          <mxGeometry y="156" width="360" height="26" as="geometry" />
        </mxCell>
        <mxCell id="_LWNujKteYWKgkZ7uh31-42" value="- customerDeleteButton: Button" style="text;html=1;strokeColor=none;fillColor=none;align=left;verticalAlign=top;spacingLeft=4;spacingRight=4;whiteSpace=wrap;overflow=hidden;rotatable=0;points=[[0,0.5],[1,0.5]];portConstraint=eastwest;" vertex="1" parent="_LWNujKteYWKgkZ7uh31-37">
          <mxGeometry y="182" width="360" height="26" as="geometry" />
        </mxCell>
        <mxCell id="_LWNujKteYWKgkZ7uh31-45" value="- customerSearch: TextField" style="text;html=1;strokeColor=none;fillColor=none;align=left;verticalAlign=top;spacingLeft=4;spacingRight=4;whiteSpace=wrap;overflow=hidden;rotatable=0;points=[[0,0.5],[1,0.5]];portConstraint=eastwest;" vertex="1" parent="_LWNujKteYWKgkZ7uh31-37">
          <mxGeometry y="208" width="360" height="26" as="geometry" />
        </mxCell>
        <mxCell id="_LWNujKteYWKgkZ7uh31-46" value="- customerDisplayComboBox: ComboBox&amp;lt;String&amp;gt;" style="text;html=1;strokeColor=none;fillColor=none;align=left;verticalAlign=top;spacingLeft=4;spacingRight=4;whiteSpace=wrap;overflow=hidden;rotatable=0;points=[[0,0.5],[1,0.5]];portConstraint=eastwest;" vertex="1" parent="_LWNujKteYWKgkZ7uh31-37">
          <mxGeometry y="234" width="360" height="26" as="geometry" />
        </mxCell>
        <mxCell id="_LWNujKteYWKgkZ7uh31-56" value="- customerId: TableColumn&amp;lt;Customer, String&amp;gt;" style="text;strokeColor=none;fillColor=none;align=left;verticalAlign=top;spacingLeft=4;spacingRight=4;overflow=hidden;rotatable=0;points=[[0,0.5],[1,0.5]];portConstraint=eastwest;whiteSpace=wrap;html=1;" vertex="1" parent="_LWNujKteYWKgkZ7uh31-37">
          <mxGeometry y="260" width="360" height="26" as="geometry" />
        </mxCell>
        <mxCell id="_LWNujKteYWKgkZ7uh31-57" value="- customerName: TableColumn&amp;lt;Customer, String&amp;gt;" style="text;strokeColor=none;fillColor=none;align=left;verticalAlign=top;spacingLeft=4;spacingRight=4;overflow=hidden;rotatable=0;points=[[0,0.5],[1,0.5]];portConstraint=eastwest;whiteSpace=wrap;html=1;" vertex="1" parent="_LWNujKteYWKgkZ7uh31-37">
          <mxGeometry y="286" width="360" height="26" as="geometry" />
        </mxCell>
        <mxCell id="_LWNujKteYWKgkZ7uh31-58" value="- customerAddress: TableColumn&amp;lt;Customer, String&amp;gt;" style="text;strokeColor=none;fillColor=none;align=left;verticalAlign=top;spacingLeft=4;spacingRight=4;overflow=hidden;rotatable=0;points=[[0,0.5],[1,0.5]];portConstraint=eastwest;whiteSpace=wrap;html=1;" vertex="1" parent="_LWNujKteYWKgkZ7uh31-37">
          <mxGeometry y="312" width="360" height="26" as="geometry" />
        </mxCell>
        <mxCell id="_LWNujKteYWKgkZ7uh31-59" value="- customerPhone: TableColumn&amp;lt;Customer, String&amp;gt;" style="text;strokeColor=none;fillColor=none;align=left;verticalAlign=top;spacingLeft=4;spacingRight=4;overflow=hidden;rotatable=0;points=[[0,0.5],[1,0.5]];portConstraint=eastwest;whiteSpace=wrap;html=1;" vertex="1" parent="_LWNujKteYWKgkZ7uh31-37">
          <mxGeometry y="338" width="360" height="26" as="geometry" />
        </mxCell>
        <mxCell id="_LWNujKteYWKgkZ7uh31-60" value="- customerType: TableColumn&amp;lt;Customer, String&amp;gt;" style="text;strokeColor=none;fillColor=none;align=left;verticalAlign=top;spacingLeft=4;spacingRight=4;overflow=hidden;rotatable=0;points=[[0,0.5],[1,0.5]];portConstraint=eastwest;whiteSpace=wrap;html=1;" vertex="1" parent="_LWNujKteYWKgkZ7uh31-37">
          <mxGeometry y="364" width="360" height="26" as="geometry" />
        </mxCell>
        <mxCell id="_LWNujKteYWKgkZ7uh31-63" value="- customerPassword: TableColumn&amp;lt;Customer, String&amp;gt;" style="text;strokeColor=none;fillColor=none;align=left;verticalAlign=top;spacingLeft=4;spacingRight=4;overflow=hidden;rotatable=0;points=[[0,0.5],[1,0.5]];portConstraint=eastwest;whiteSpace=wrap;html=1;" vertex="1" parent="_LWNujKteYWKgkZ7uh31-37">
          <mxGeometry y="390" width="360" height="26" as="geometry" />
        </mxCell>
        <mxCell id="_LWNujKteYWKgkZ7uh31-62" value="- customerUsername: TableColumn&amp;lt;Customer, String&amp;gt;" style="text;strokeColor=none;fillColor=none;align=left;verticalAlign=top;spacingLeft=4;spacingRight=4;overflow=hidden;rotatable=0;points=[[0,0.5],[1,0.5]];portConstraint=eastwest;whiteSpace=wrap;html=1;" vertex="1" parent="_LWNujKteYWKgkZ7uh31-37">
          <mxGeometry y="416" width="360" height="26" as="geometry" />
        </mxCell>
        <mxCell id="_LWNujKteYWKgkZ7uh31-61" value="- customerRentalList: TableColumn&amp;lt;Customer, String&amp;gt;" style="text;strokeColor=none;fillColor=none;align=left;verticalAlign=top;spacingLeft=4;spacingRight=4;overflow=hidden;rotatable=0;points=[[0,0.5],[1,0.5]];portConstraint=eastwest;whiteSpace=wrap;html=1;" vertex="1" parent="_LWNujKteYWKgkZ7uh31-37">
          <mxGeometry y="442" width="360" height="26" as="geometry" />
        </mxCell>
        <mxCell id="_LWNujKteYWKgkZ7uh31-47" value="" style="line;strokeWidth=1;fillColor=none;align=left;verticalAlign=middle;spacingTop=-1;spacingLeft=3;spacingRight=3;rotatable=0;labelPosition=right;points=[];portConstraint=eastwest;strokeColor=inherit;" vertex="1" parent="_LWNujKteYWKgkZ7uh31-37">
          <mxGeometry y="468" width="360" height="8" as="geometry" />
        </mxCell>
        <mxCell id="_LWNujKteYWKgkZ7uh31-48" value="+ initialize(): void" style="text;strokeColor=none;fillColor=none;align=left;verticalAlign=top;spacingLeft=4;spacingRight=4;overflow=hidden;rotatable=0;points=[[0,0.5],[1,0.5]];portConstraint=eastwest;whiteSpace=wrap;html=1;" vertex="1" parent="_LWNujKteYWKgkZ7uh31-37">
          <mxGeometry y="476" width="360" height="26" as="geometry" />
        </mxCell>
        <mxCell id="_LWNujKteYWKgkZ7uh31-49" value="- refreshCustomerTable(): void" style="text;strokeColor=none;fillColor=none;align=left;verticalAlign=top;spacingLeft=4;spacingRight=4;overflow=hidden;rotatable=0;points=[[0,0.5],[1,0.5]];portConstraint=eastwest;whiteSpace=wrap;html=1;" vertex="1" parent="_LWNujKteYWKgkZ7uh31-37">
          <mxGeometry y="502" width="360" height="26" as="geometry" />
        </mxCell>
        <mxCell id="_LWNujKteYWKgkZ7uh31-50" value="- onCusAddButton(ActionEvent event): void" style="text;strokeColor=none;fillColor=none;align=left;verticalAlign=top;spacingLeft=4;spacingRight=4;overflow=hidden;rotatable=0;points=[[0,0.5],[1,0.5]];portConstraint=eastwest;whiteSpace=wrap;html=1;" vertex="1" parent="_LWNujKteYWKgkZ7uh31-37">
          <mxGeometry y="528" width="360" height="26" as="geometry" />
        </mxCell>
        <mxCell id="_LWNujKteYWKgkZ7uh31-51" value="- onCusDeleteButton(ActionEvent event): void" style="text;strokeColor=none;fillColor=none;align=left;verticalAlign=top;spacingLeft=4;spacingRight=4;overflow=hidden;rotatable=0;points=[[0,0.5],[1,0.5]];portConstraint=eastwest;whiteSpace=wrap;html=1;" vertex="1" parent="_LWNujKteYWKgkZ7uh31-37">
          <mxGeometry y="554" width="360" height="26" as="geometry" />
        </mxCell>
        <mxCell id="_LWNujKteYWKgkZ7uh31-52" value="- onCusUpdateButton(ActionEvent event): void" style="text;strokeColor=none;fillColor=none;align=left;verticalAlign=top;spacingLeft=4;spacingRight=4;overflow=hidden;rotatable=0;points=[[0,0.5],[1,0.5]];portConstraint=eastwest;whiteSpace=wrap;html=1;" vertex="1" parent="_LWNujKteYWKgkZ7uh31-37">
          <mxGeometry y="580" width="360" height="26" as="geometry" />
        </mxCell>
        <mxCell id="_LWNujKteYWKgkZ7uh31-53" value="- onCusDisplayComboBox(ActionEvent event): void" style="text;strokeColor=none;fillColor=none;align=left;verticalAlign=top;spacingLeft=4;spacingRight=4;overflow=hidden;rotatable=0;points=[[0,0.5],[1,0.5]];portConstraint=eastwest;whiteSpace=wrap;html=1;" vertex="1" parent="_LWNujKteYWKgkZ7uh31-37">
          <mxGeometry y="606" width="360" height="26" as="geometry" />
        </mxCell>
        <mxCell id="_LWNujKteYWKgkZ7uh31-55" value="- customerFilter(ObservableList&amp;lt;Customer&amp;gt; customers): void" style="text;strokeColor=none;fillColor=none;align=left;verticalAlign=top;spacingLeft=4;spacingRight=4;overflow=hidden;rotatable=0;points=[[0,0.5],[1,0.5]];portConstraint=eastwest;whiteSpace=wrap;html=1;" vertex="1" parent="_LWNujKteYWKgkZ7uh31-37">
          <mxGeometry y="632" width="360" height="26" as="geometry" />
        </mxCell>
        <mxCell id="_LWNujKteYWKgkZ7uh31-54" value="&lt;div&gt;controls&lt;/div&gt;&lt;div&gt;&lt;br&gt;&lt;/div&gt;" style="endArrow=block;endSize=16;endFill=0;html=1;rounded=0;exitX=0.717;exitY=-0.002;exitDx=0;exitDy=0;entryX=0.5;entryY=1;entryDx=0;entryDy=0;exitPerimeter=0;" edge="1" parent="1" source="_LWNujKteYWKgkZ7uh31-37" target="_LWNujKteYWKgkZ7uh31-36">
          <mxGeometry x="-0.1111" width="160" relative="1" as="geometry">
            <mxPoint x="20" y="618" as="sourcePoint" />
            <mxPoint x="180" y="618" as="targetPoint" />
            <mxPoint as="offset" />
          </mxGeometry>
        </mxCell>
        <mxCell id="_LWNujKteYWKgkZ7uh31-85" value="Use" style="endArrow=open;endSize=12;dashed=1;html=1;rounded=0;entryX=0.5;entryY=0;entryDx=0;entryDy=0;" edge="1" parent="1" target="_LWNujKteYWKgkZ7uh31-16">
          <mxGeometry width="160" relative="1" as="geometry">
            <mxPoint x="-450" y="340" as="sourcePoint" />
            <mxPoint x="-560" y="400" as="targetPoint" />
          </mxGeometry>
        </mxCell>
        <mxCell id="_LWNujKteYWKgkZ7uh31-86" value="Use" style="endArrow=open;endSize=12;dashed=1;html=1;rounded=0;entryX=0.322;entryY=0.96;entryDx=0;entryDy=0;entryPerimeter=0;" edge="1" parent="1" target="_LWNujKteYWKgkZ7uh31-36">
          <mxGeometry width="160" relative="1" as="geometry">
            <mxPoint x="-200" y="230" as="sourcePoint" />
            <mxPoint x="-220" y="580" as="targetPoint" />
          </mxGeometry>
        </mxCell>
        <mxCell id="_LWNujKteYWKgkZ7uh31-87" value="Use" style="endArrow=open;endSize=12;dashed=1;html=1;rounded=0;entryX=1;entryY=0.5;entryDx=0;entryDy=0;" edge="1" parent="1" target="_LWNujKteYWKgkZ7uh31-6">
          <mxGeometry width="160" relative="1" as="geometry">
            <mxPoint x="-460" y="220" as="sourcePoint" />
            <mxPoint x="-220" y="580" as="targetPoint" />
          </mxGeometry>
        </mxCell>
        <mxCell id="x28VGx1whQ6OH95V_d1b-1" value="userProfile-view.fxml" style="html=1;whiteSpace=wrap;" vertex="1" parent="1">
          <mxGeometry x="-560" y="40" width="145" height="50" as="geometry" />
        </mxCell>
        <mxCell id="x28VGx1whQ6OH95V_d1b-2" value="Use" style="endArrow=open;endSize=12;dashed=1;html=1;rounded=0;entryX=0.048;entryY=0.4;entryDx=0;entryDy=0;entryPerimeter=0;" edge="1" parent="1" target="x28VGx1whQ6OH95V_d1b-1">
          <mxGeometry width="160" relative="1" as="geometry">
            <mxPoint x="-635" y="70" as="sourcePoint" />
            <mxPoint x="-475" y="70" as="targetPoint" />
          </mxGeometry>
        </mxCell>
        <mxCell id="x28VGx1whQ6OH95V_d1b-3" value="Use" style="endArrow=open;endSize=12;dashed=1;html=1;rounded=0;entryX=0.821;entryY=1.06;entryDx=0;entryDy=0;entryPerimeter=0;" edge="1" parent="1" target="x28VGx1whQ6OH95V_d1b-1">
          <mxGeometry width="160" relative="1" as="geometry">
            <mxPoint x="-380" y="150" as="sourcePoint" />
            <mxPoint x="-563" y="70" as="targetPoint" />
          </mxGeometry>
        </mxCell>
        <mxCell id="x28VGx1whQ6OH95V_d1b-4" value="itemEditor-view.fxml" style="html=1;whiteSpace=wrap;" vertex="1" parent="1">
          <mxGeometry x="-800" y="370" width="135" height="50" as="geometry" />
        </mxCell>
        <mxCell id="x28VGx1whQ6OH95V_d1b-5" value="Use" style="endArrow=open;endSize=12;dashed=1;html=1;rounded=0;entryX=0.407;entryY=0.98;entryDx=0;entryDy=0;exitX=0.25;exitY=0;exitDx=0;exitDy=0;entryPerimeter=0;" edge="1" parent="1" source="_LWNujKteYWKgkZ7uh31-17" target="x28VGx1whQ6OH95V_d1b-4">
          <mxGeometry width="160" relative="1" as="geometry">
            <mxPoint x="-440" y="350" as="sourcePoint" />
            <mxPoint x="-527" y="430" as="targetPoint" />
          </mxGeometry>
        </mxCell>
        <mxCell id="x28VGx1whQ6OH95V_d1b-6" value="itemTable-view.fxml" style="html=1;whiteSpace=wrap;" vertex="1" parent="1">
          <mxGeometry x="-650" y="350" width="135" height="50" as="geometry" />
        </mxCell>
        <mxCell id="x28VGx1whQ6OH95V_d1b-7" value="Use" style="endArrow=open;endSize=12;dashed=1;html=1;rounded=0;entryX=0.25;entryY=1;entryDx=0;entryDy=0;exitX=0.36;exitY=-0.005;exitDx=0;exitDy=0;exitPerimeter=0;" edge="1" parent="1" source="_LWNujKteYWKgkZ7uh31-17" target="x28VGx1whQ6OH95V_d1b-6">
          <mxGeometry width="160" relative="1" as="geometry">
            <mxPoint x="-695" y="532" as="sourcePoint" />
            <mxPoint x="-735" y="429" as="targetPoint" />
          </mxGeometry>
        </mxCell>
      </root>
    </mxGraphModel>
  </diagram>
</mxfile>
